<?xml version="1.0" standalone="no"?>
<!DOCTYPE svg PUBLIC "-//W3C//DTD SVG 20010904//EN"
 "http://www.w3.org/TR/2001/REC-SVG-20010904/DTD/svg10.dtd">
<svg version="1.0" xmlns="http://www.w3.org/2000/svg"
 width="200.000000pt" height="200.000000pt" viewBox="0 0 200.000000 200.000000"
 preserveAspectRatio="xMidYMid meet">
<metadata>
Created by potrace 1.11, written by Peter Selinger 2001-2013
</metadata>
<g transform="translate(0.000000,200.000000) scale(0.100000,-0.100000)"
fill="#000000" stroke="none">
<path d="M932 1923 c8 -10 6 -13 -5 -13 -8 0 -17 6 -20 13 -3 9 -7 9 -18 0 -8
-6 -28 -13 -46 -16 -17 -3 -36 -8 -42 -11 -5 -3 -12 0 -15 6 -3 9 -11 6 -25
-11 -12 -13 -21 -21 -21 -17 0 3 -11 1 -24 -4 -15 -5 -27 -5 -34 2 -6 6 -12 6
-17 -3 -5 -7 -4 -10 2 -6 6 4 13 1 16 -7 4 -9 -2 -12 -21 -10 -29 3 -54 -8
-53 -22 1 -5 -8 -10 -19 -10 -37 -3 -41 -4 -36 -13 7 -10 -16 -21 -45 -21 -12
0 -16 -5 -12 -15 3 -9 2 -15 -3 -14 -29 5 -53 -2 -48 -15 3 -9 -5 -16 -22 -20
-22 -6 -25 -9 -13 -17 11 -7 11 -9 -4 -9 -12 0 -16 -4 -11 -12 5 -8 0 -7 -11
2 -17 14 -18 13 -12 -2 5 -13 1 -18 -13 -18 -14 0 -18 -5 -13 -17 5 -13 2 -15
-11 -10 -10 4 -15 3 -11 -3 3 -6 1 -10 -5 -10 -7 0 -10 -7 -6 -15 4 -10 -1
-15 -14 -15 -11 0 -20 -6 -20 -14 0 -8 -7 -16 -15 -20 -8 -3 -15 -13 -15 -22
0 -11 -5 -14 -17 -10 -15 5 -15 4 1 -9 17 -13 18 -15 3 -15 -9 0 -17 -7 -17
-15 0 -8 -8 -15 -17 -15 -16 -1 -16 -2 2 -17 16 -13 17 -15 3 -10 -17 6 -24
-8 -19 -36 1 -5 -3 -6 -8 -2 -14 8 -27 -24 -27 -62 1 -27 -1 -30 -14 -18 -13
12 -15 8 -15 -33 0 -33 -4 -47 -14 -47 -8 0 -15 -12 -17 -27 -1 -17 2 -28 9
-28 8 0 7 -4 -2 -9 -8 -5 -11 -16 -8 -25 4 -10 -1 -24 -13 -36 -12 -12 -15
-20 -7 -23 7 -2 12 -18 13 -35 0 -17 -3 -29 -7 -26 -4 2 -6 13 -4 24 2 11 1
22 -3 24 -12 7 -5 -115 7 -127 14 -14 14 -27 0 -27 -5 0 -7 5 -4 10 3 6 1 10
-4 10 -12 0 -9 -35 4 -47 4 -5 5 -2 1 5 -4 6 -2 12 3 12 14 0 14 -17 1 -25 -5
-3 -10 -12 -10 -18 0 -7 4 -6 10 3 7 11 10 3 11 -30 1 -25 2 -51 2 -57 -1 -7
4 -13 9 -13 6 0 5 -7 -2 -15 -11 -13 -10 -14 5 -9 13 5 16 4 11 -4 -4 -7 -3
-12 2 -12 5 0 8 -14 7 -30 -1 -17 4 -38 12 -48 12 -15 13 -14 3 8 -10 23 -10
24 4 6 9 -10 13 -23 10 -28 -3 -5 0 -16 8 -25 11 -14 11 -16 0 -9 -11 7 -12 4
-3 -13 7 -11 14 -21 17 -21 3 0 2 5 -2 12 -4 7 -3 8 5 4 6 -4 11 -13 10 -19
-4 -30 2 -47 16 -47 9 0 15 -6 14 -12 -4 -34 2 -50 16 -44 10 3 15 -1 15 -13
0 -10 7 -22 16 -25 8 -3 12 -10 9 -16 -3 -5 -1 -10 5 -10 6 0 8 -5 4 -12 -5
-9 -2 -9 9 1 15 12 17 10 17 -14 0 -16 3 -26 6 -22 9 9 34 -19 34 -37 0 -11 9
-16 31 -16 24 0 30 -4 25 -15 -3 -9 0 -15 10 -15 10 0 14 -6 10 -15 -3 -8 -2
-14 2 -14 24 4 42 -3 42 -16 0 -10 10 -15 30 -15 20 0 30 -5 30 -15 0 -13 24
-20 52 -16 4 0 9 -8 13 -18 4 -13 14 -18 31 -16 13 1 27 -2 31 -8 3 -6 1 -7
-5 -3 -6 3 -13 2 -17 -4 -6 -9 34 -15 80 -12 16 2 17 0 5 -8 -11 -7 -11 -10
-2 -10 7 0 10 -6 7 -12 -4 -7 1 -4 9 6 14 17 16 17 16 3 0 -12 8 -16 36 -13
23 2 38 -3 44 -13 5 -9 23 -16 44 -16 29 -1 36 2 31 14 -4 14 -4 14 7 1 7 -8
27 -16 45 -17 26 -1 31 2 26 15 -4 14 -3 15 5 2 13 -17 105 -21 98 -4 -2 6 2
11 9 11 8 0 13 -5 12 -11 -2 -13 41 -17 49 -4 3 5 13 4 22 -4 14 -10 15 -10 5
2 -20 22 -16 25 37 24 28 -1 50 3 50 8 0 5 -5 6 -12 2 -7 -4 -8 -3 -4 5 6 9
11 9 22 0 12 -9 13 -9 9 2 -3 9 1 15 12 16 65 3 81 8 75 23 -3 8 -2 12 3 8 4
-4 15 -3 22 4 11 9 16 9 23 -1 5 -9 10 -10 14 -2 4 6 2 11 -4 11 -6 0 -8 5 -5
11 4 6 9 8 12 5 8 -8 44 14 38 23 -2 5 1 9 8 8 32 -1 48 4 42 13 -3 6 6 15 20
20 14 5 23 14 20 20 -3 6 1 7 9 4 9 -4 16 -1 16 6 0 7 7 10 18 5 13 -5 15 -4
5 6 -10 10 -7 15 17 25 17 7 35 25 40 39 5 14 17 25 27 26 11 0 13 3 6 6 -19
7 -16 21 5 19 11 -1 16 5 14 16 -2 12 2 16 13 12 10 -4 15 0 15 15 0 12 6 21
16 21 9 0 14 6 11 13 -2 6 3 18 12 25 9 8 10 11 4 7 -8 -4 -13 0 -13 9 0 10 6
13 15 10 11 -4 15 0 15 16 0 17 4 21 18 16 14 -5 14 -4 -2 9 -17 13 -18 15 -3
15 9 0 18 5 18 10 1 6 3 15 4 20 1 6 3 17 4 25 0 8 7 15 14 15 8 0 13 9 12 22
-3 32 5 49 19 42 6 -3 2 2 -9 12 -15 13 -16 15 -3 11 9 -3 19 0 22 9 3 8 1 14
-5 14 -6 0 -7 6 -2 13 11 17 14 34 15 95 1 28 5 52 9 52 3 0 5 -16 4 -34 -1
-19 2 -33 5 -31 10 6 5 104 -5 113 -5 4 -5 2 -1 -5 3 -6 3 -14 -2 -17 -4 -2
-9 4 -9 15 -1 10 4 19 11 19 14 0 15 35 1 47 -4 5 -5 3 -1 -4 3 -6 3 -14 -2
-17 -4 -2 -9 4 -9 15 -1 10 4 19 10 19 7 0 12 16 13 41 1 22 -2 35 -7 28 -4
-7 -6 -21 -4 -31 2 -10 0 -18 -4 -18 -5 0 -9 15 -9 33 -1 78 -6 103 -21 121
-9 11 -11 16 -4 13 6 -4 14 -3 18 3 5 9 -6 14 -26 12 -3 -1 -6 21 -5 48 1 38
-2 46 -11 38 -13 -11 -15 -8 -17 37 -1 11 -7 19 -14 17 -8 -1 -11 2 -7 8 3 5
1 10 -4 10 -6 0 -11 13 -11 30 0 17 -5 29 -11 27 -10 -2 -18 17 -21 50 -1 7
-5 10 -10 7 -5 -4 -12 3 -15 15 -3 12 -11 21 -18 21 -7 0 -15 10 -19 23 -5 18
-8 20 -16 7 -8 -12 -10 -9 -10 14 0 22 -4 27 -16 22 -13 -5 -15 -2 -11 14 3
11 1 18 -4 14 -5 -3 -9 -1 -9 5 0 6 -7 8 -15 5 -11 -5 -13 -2 -9 10 4 12 0 16
-16 16 -16 0 -20 4 -16 15 4 10 -1 15 -14 15 -11 0 -20 7 -20 15 0 9 -9 15
-21 15 -13 0 -19 5 -16 13 4 12 -7 16 -55 20 -12 1 -14 5 -7 13 7 8 2 12 -17
12 -15 0 -31 7 -37 17 -8 14 -11 15 -18 4 -7 -11 -9 -11 -9 3 0 11 -6 16 -20
13 -13 -2 -20 2 -20 11 0 12 -47 21 -82 15 -13 -2 -9 17 5 22 6 3 2 4 -10 4
-12 -1 -19 -6 -16 -12 4 -5 -3 -2 -14 8 -24 20 -40 23 -24 3 9 -11 9 -16 0
-22 -7 -4 -9 -3 -6 3 9 15 -12 29 -46 31 -36 2 -49 10 -41 24 4 7 2 8 -5 4 -6
-4 -9 -12 -6 -17 4 -5 -1 -9 -10 -9 -9 0 -14 4 -11 9 3 5 -1 12 -10 15 -11 4
-15 2 -11 -8 4 -10 0 -14 -13 -13 -12 1 -16 5 -10 12 5 7 -11 10 -50 10 -46 0
-56 -3 -48 -12z m72 -3 c2 -3 -9 -6 -25 -6 -16 -1 -29 2 -29 6 0 7 46 7 54 0z
m-224 -30 c0 -5 -5 -10 -11 -10 -5 0 -7 5 -4 10 3 6 8 10 11 10 2 0 4 -4 4
-10z m550 -40 c0 -5 -2 -10 -4 -10 -3 0 -8 5 -11 10 -3 6 -1 10 4 10 6 0 11
-4 11 -10z m-440 -1769 c0 -4 -11 -7 -25 -7 -14 0 -25 3 -25 7 0 3 11 7 25 7
14 0 25 -4 25 -7z m265 0 c-9 -8 -36 -10 -30 -2 2 4 11 8 20 8 8 0 13 -3 10
-6z"/>
<path d="M567 169 c7 -7 15 -10 18 -7 3 3 -2 9 -12 12 -14 6 -15 5 -6 -5z"/>
</g>
</svg>
